HIERARCHY
ROOT Hips
{
	OFFSET 0.000000 0.000000 0.000000
	CHANNELS 6 Xposition Yposition Zposition Zrotation Yrotation Xrotation 
	JOINT LHipJoint
	{
		OFFSET 0.000000 0.000000 0.000000
		CHANNELS 3 Zrotation Yrotation Xrotation
		JOINT LeftUpLeg
		{
			OFFSET 1.363060 -1.794630 0.839290
			CHANNELS 3 Zrotation Yrotation Xrotation
			JOINT LeftLeg
			{
				OFFSET 2.448110 -6.726130 0.000000
				CHANNELS 3 Zrotation Yrotation Xrotation
				JOINT LeftFoot
				{
					OFFSET 2.562200 -7.039590 0.000000
					CHANNELS 3 Zrotation Yrotation Xrotation
					JOINT LeftToeBase
					{
						OFFSET 0.157640 -0.433110 2.322550
						CHANNELS 3 Zrotation Yrotation Xrotation
						End Site
						{
							OFFSET 0.000000 0.000000 0.000000
						}
					}
				}
			}
		}
	}
	JOINT RHipJoint
	{
		OFFSET 0.000000 0.000000 0.000000
		CHANNELS 3 Zrotation Yrotation Xrotation
		JOINT RightUpLeg
		{
			OFFSET -1.305520 -1.794630 0.839290
			CHANNELS 3 Zrotation Yrotation Xrotation
			JOINT RightLeg
			{
				OFFSET -2.542530 -6.985550 0.000000
				CHANNELS 3 Zrotation Yrotation Xrotation
				JOINT RightFoot
				{
					OFFSET -2.568260 -7.056230 0.000000
					CHANNELS 3 Zrotation Yrotation Xrotation
					JOINT RightToeBase
					{
						OFFSET -0.164730 -0.452590 2.363150
						CHANNELS 3 Zrotation Yrotation Xrotation
						End Site
						{
							OFFSET 0.000000 0.000000 0.000000
						}
					}
				}
			}
		}
	}
	JOINT LowerBack
	{
		OFFSET 0.000000 0.000000 0.000000
		CHANNELS 3 Zrotation Yrotation Xrotation
		JOINT Spine
		{
			OFFSET 0.028270 2.035590 -0.193380
			CHANNELS 3 Zrotation Yrotation Xrotation
			JOINT Spine1
			{
				OFFSET 0.056720 2.048850 -0.042750
				CHANNELS 3 Zrotation Yrotation Xrotation
				JOINT Neck
				{
					OFFSET 0.000000 0.000000 0.000000
					CHANNELS 3 Zrotation Yrotation Xrotation
					JOINT Neck1
					{
						OFFSET -0.054170 1.746240 0.172020
						CHANNELS 3 Zrotation Yrotation Xrotation
						JOINT Head
						{
							OFFSET 0.104070 1.761360 -0.123970
							CHANNELS 3 Zrotation Yrotation Xrotation
							End Site
							{
								OFFSET 0.000000 0.000000 0.000000
							}
						}
					}
				}
				JOINT LeftShoulder
				{
					OFFSET 0.000000 0.000000 0.000000
					CHANNELS 3 Zrotation Yrotation Xrotation
					JOINT LeftArm
					{
						OFFSET 3.362410 1.200890 -0.311210
						CHANNELS 3 Zrotation Yrotation Xrotation
						JOINT LeftForeArm
						{
							OFFSET 4.983000 -0.000000 -0.000000
							CHANNELS 3 Zrotation Yrotation Xrotation
							JOINT LeftHand
							{
								OFFSET 3.483560 -0.000000 -0.000000
								CHANNELS 3 Zrotation Yrotation Xrotation
								JOINT LeftFingerBase
								{
									OFFSET 0.000000 0.000000 0.000000
									CHANNELS 3 Zrotation Yrotation Xrotation
									JOINT LeftHandIndex1
									{
										OFFSET 0.715260 -0.000000 -0.000000
										CHANNELS 3 Zrotation Yrotation Xrotation
										End Site
										{
											OFFSET 0.000000 0.000000 0.000000
										}
									}
								}
								JOINT LThumb
								{
									OFFSET 0.000000 0.000000 0.000000
									CHANNELS 3 Zrotation Yrotation Xrotation
									End Site
									{
										OFFSET 0.000000 0.000000 0.000000
									}
								}
							}
						}
					}
				}
				JOINT RightShoulder
				{
					OFFSET 0.000000 0.000000 0.000000
					CHANNELS 3 Zrotation Yrotation Xrotation
					JOINT RightArm
					{
						OFFSET -3.136600 1.374050 -0.404650
						CHANNELS 3 Zrotation Yrotation Xrotation
						JOINT RightForeArm
						{
							OFFSET -5.241900 -0.000000 -0.000000
							CHANNELS 3 Zrotation Yrotation Xrotation
							JOINT RightHand
							{
								OFFSET -3.444170 -0.000000 -0.000000
								CHANNELS 3 Zrotation Yrotation Xrotation
								JOINT RightFingerBase
								{
									OFFSET 0.000000 0.000000 0.000000
									CHANNELS 3 Zrotation Yrotation Xrotation
									JOINT RightHandIndex1
									{
										OFFSET -0.622530 -0.000000 -0.000000
										CHANNELS 3 Zrotation Yrotation Xrotation
										End Site
										{
											OFFSET 0.000000 0.000000 0.000000
										}
									}
								}
								JOINT RThumb
								{
									OFFSET 0.000000 0.000000 0.000000
									CHANNELS 3 Zrotation Yrotation Xrotation
									End Site
									{
										OFFSET 0.000000 0.000000 0.000000
									}
								}
							}
						}
					}
				}
			}
		}
	}
}
MOTION
Frames: 7
Frame Time: 0.008333
16.908799 17.617635 2.350771 -8.658407 -85.018382 15.488922 -12.021194 5.145369 0.586459 0.075591 10.870890 4.803055 -0.217078 1.569802 18.600919 1.543862 8.011282 20.542947 3.103000 0.000000 -63.680600 8.259643 -0.117603 1.902534 11.893616 -5.629039 -25.417628 2.733522 1.814384 3.356941 -3.075086 -12.976362 -8.464735 -0.854200 -0.000000 -40.960000 2.729737 -6.936794 -3.751016 0.517387 -7.269458 -3.004622 -4.962634 -7.259452 2.780864 11.521522 -20.109467 -12.823096 -1.879563 -0.058648 -1.328875 0.000000 0.000000 0.000000 9.497878 11.383740 -0.277296 -50.626639 -5.194469 -6.550568 -0.745651 -69.163024 -0.126845 19.281965 -0.813609 -0.208061 -0.257655 0.404935 0.000000 0.000000 0.000000 0.000000 0.000000 0.000000 0.000000 14.642933 -20.122592 1.892120 84.191446 -27.955884 -29.211810 4.566515 10.772145 0.004997 1.513216 2.275372 0.027837 0.119917 0.001430 -0.000000 0.000000 0.000000 0.000000 0.000000 0.000000 0.000000 
16.666473 17.675462 2.312184 -8.087269 -85.115490 14.671107 -12.037943 5.177615 0.582729 0.322460 11.037052 4.574631 -0.111587 1.637525 19.943104 1.693039 8.568338 22.206557 3.484200 0.000000 -59.143800 8.258419 -0.151486 1.912191 12.234238 -5.604620 -24.531345 2.685775 1.918538 2.528411 -3.195323 -13.653728 -8.345534 -0.930600 0.000000 -40.552800 2.729243 -6.969361 -3.801075 0.540250 -7.302861 -3.009189 -4.866976 -7.297551 2.812941 11.421418 -20.388596 -12.813293 -1.818138 -0.053511 -1.322328 0.000000 0.000000 0.000000 9.674107 11.381856 -0.311580 -50.694166 -4.349212 -6.676701 -0.742764 -69.288011 -0.126736 19.346770 -1.031760 -0.246667 -0.257700 0.406260 0.000000 0.000000 0.000000 0.000000 0.000000 0.000000 0.000000 14.412303 -20.410696 1.879669 84.278732 -28.356779 -29.249605 4.582380 11.114412 0.004821 1.448994 2.160236 0.025141 0.121886 0.002190 -0.000000 0.000000 0.000000 0.000000 0.000000 0.000000 0.000000 
16.427070 17.722762 2.275765 -7.565436 -85.304857 13.902971 -12.050536 5.192042 0.550436 0.529523 11.307181 4.267430 -0.034334 1.697974 21.427230 1.829293 9.231651 23.251407 3.879500 0.000000 -54.368200 8.256798 -0.190559 1.910804 12.556648 -5.540178 -23.767332 2.636742 1.966231 2.143456 -3.302111 -14.224419 -8.305168 -0.978899 0.000000 -40.330700 2.749901 -6.974821 -3.810827 0.563114 -7.309890 -3.007431 -4.779517 -7.309181 2.840996 11.307616 -20.632463 -12.815631 -1.757514 -0.048230 -1.320181 0.000000 0.000000 0.000000 9.758473 11.426586 -0.325780 -50.805625 -3.493154 -6.774826 -0.744354 -69.344678 -0.125960 19.379182 -1.202644 -0.276570 -0.258005 0.405612 0.000000 0.000000 0.000000 0.000000 0.000000 0.000000 0.000000 14.156532 -20.640227 1.873382 84.336070 -28.624948 -29.233469 4.598306 11.403023 0.004717 1.420357 2.080659 0.023645 0.123644 0.002510 -0.000000 0.000000 0.000000 0.000000 0.000000 0.000000 0.000000 
16.190823 17.758889 2.240911 -6.921940 -85.585633 12.999760 -12.051256 5.193166 0.479377 0.689540 11.683503 3.919806 0.017376 1.759577 23.026029 1.952123 10.013922 23.723750 4.291400 -0.000000 -49.788000 8.264226 -0.230078 1.895030 12.830968 -5.434694 -23.076442 2.585166 1.963222 2.131552 -3.385969 -14.659641 -8.313295 -1.002300 -0.000000 -40.286600 2.772299 -6.957854 -3.762746 0.581110 -7.293779 -2.995273 -4.702766 -7.297433 2.863694 11.190321 -20.834516 -12.827722 -1.699387 -0.042960 -1.321883 0.000000 0.000000 0.000000 9.765794 11.512939 -0.320669 -50.952217 -2.618900 -6.844792 -0.749481 -69.339142 -0.124569 19.384629 -1.316635 -0.295872 -0.258654 0.402912 0.000000 0.000000 0.000000 0.000000 0.000000 0.000000 0.000000 13.892505 -20.807940 1.871444 84.360620 -28.758551 -29.175048 4.611651 11.637060 0.004717 1.408216 2.047282 0.023051 0.125201 0.002332 -0.000000 0.000000 0.000000 0.000000 0.000000 0.000000 0.000000 
15.957127 17.783378 2.207021 -6.048994 -85.949306 11.864975 -12.038040 5.184835 0.368909 0.809202 12.173379 3.515844 0.047205 1.827437 24.741980 2.062668 10.902634 23.685486 4.706600 0.000001 -45.830700 8.285090 -0.269099 1.876236 13.043844 -5.262913 -22.435244 2.530457 1.919941 2.405254 -3.443627 -14.960184 -8.333276 -1.010900 0.000000 -40.372600 2.789299 -6.922216 -3.667597 0.592825 -7.257886 -2.974324 -4.638347 -7.265563 2.881986 11.076518 -20.991191 -12.846645 -1.644934 -0.037864 -1.326443 0.000000 0.000000 0.000000 9.706066 11.638599 -0.298004 -51.126796 -1.722132 -6.880354 -0.757888 -69.273412 -0.122594 19.367196 -1.373636 -0.304672 -0.259660 0.398157 0.000000 0.000000 0.000000 0.000000 0.000000 0.000000 0.000000 13.630949 -20.913180 1.871544 84.349831 -28.762070 -29.103565 4.621322 11.814940 0.004841 1.399214 2.066145 0.023058 0.126603 0.001596 -0.000000 0.000000 0.000000 0.000000 0.000000 0.000000 0.000000 
15.726079 17.795508 2.173160 -4.802682 -86.387834 10.360068 -12.007828 5.169390 0.213753 0.904011 12.807645 3.017064 0.055517 1.907676 26.623404 2.157170 11.836153 23.134123 5.074001 0.000000 -42.193300 8.324572 -0.305585 1.866240 13.185545 -4.993759 -21.843744 2.470658 1.842232 2.922926 -3.475835 -15.134041 -8.353586 -1.009100 0.000001 -40.518000 2.791456 -6.871099 -3.532756 0.596474 -7.204732 -2.945793 -4.586585 -7.216100 2.896093 10.972698 -21.103789 -12.869276 -1.593831 -0.032964 -1.332855 0.000000 0.000000 0.000000 9.593696 11.794106 -0.260083 -51.322731 -0.794803 -6.883916 -0.768890 -69.149319 -0.120114 19.331888 -1.369786 -0.302272 -0.261020 0.391403 0.000000 0.000000 0.000000 0.000000 0.000000 0.000000 0.000000 13.377143 -20.959832 1.873158 84.311306 -28.639655 -29.037444 4.625326 11.948836 0.005059 1.375701 2.121980 0.023266 0.127896 0.000331 -0.000000 0.000000 0.000000 0.000000 0.000000 0.000000 0.000000 
15.497796 17.795122 2.138825 -2.886446 -86.876221 8.164571 -11.946081 5.148901 0.018391 0.956781 13.507284 2.500541 0.050584 2.002833 28.600178 2.247451 12.864858 22.214513 5.420400 0.000000 -39.432500 8.398960 -0.333389 1.839814 13.250690 -4.713577 -21.251857 2.408989 1.733845 3.622327 -3.465848 -15.122557 -8.351950 -0.996500 0.000000 -40.678000 2.766765 -6.810655 -3.332622 0.588504 -7.139378 -2.904418 -4.550745 -7.153785 2.903057 10.889886 -21.163342 -12.891755 -1.550536 -0.028694 -1.340212 0.000000 0.000000 0.000000 9.442245 11.970639 -0.208342 -51.536741 0.151073 -6.859092 -0.782838 -68.959640 -0.117172 19.281052 -1.324312 -0.292174 -0.262561 0.382938 0.000000 0.000000 0.000000 0.000000 0.000000 0.000000 0.000000 13.160247 -20.943632 1.872521 84.249939 -28.408160 -28.953170 4.620177 12.078090 0.005338 1.323689 2.202710 0.023175 0.128993 -0.001339 -0.000000 0.000000 0.000000 0.000000 0.000000 0.000000 0.000000 
